<?xml version="1.0" encoding="utf-8"?><svg xmlns="http://www.w3.org/2000/svg"><symbol viewBox="0 0 24 24" id="flag"><path d="M5 20v-5c1.333-1.333 3-2 5-2 3 0 4 2 6 2 1 0 2-.333 3-1V5c-1 .667-2 1-3 1-2 0-3-2-6-2-2 0-3.667.667-5 2v9"/></symbol><symbol viewBox="0 0 24 24" id="language"><circle cx="12" cy="12" r="10"/><path stroke-linecap="round" d="M12,22 C14.6666667,19.5757576 16,16.2424242 16,12 C16,7.75757576 14.6666667,4.42424242 12,2 C9.33333333,4.42424242 8,7.75757576 8,12 C8,16.2424242 9.33333333,19.5757576 12,22 Z"/><path stroke-linecap="round" d="M2.5 9L21.5 9M2.5 15L21.5 15"/></symbol><symbol viewBox="0 0 24 24" id="info"><path d="M12,12 L12,15"/><line x1="12" y1="9" x2="12" y2="9"/><circle cx="12" cy="12" r="10"/></symbol></svg>